<svg width="64" height="64" viewBox="0 0 197 197" fill="none" xmlns="http://www.w3.org/2000/svg">
<rect width="197" height="197" fill="white"/>
<path d="M140.117 67.0723C140.596 67.0179 141.16 67.1811 141.475 67.4639C142.167 68.0868 142.726 70.763 142.49 72.3252C142.263 73.8321 142.757 74.4182 143.699 73.7617C144.665 73.0892 145.058 71.5215 144.637 70.0244C144.164 68.3468 144.435 67.3099 145.347 67.3096C145.729 67.3096 146.243 67.509 146.489 67.7529C147.028 68.2885 147.817 70.8149 147.817 72.0039C147.817 73.1127 148.167 72.753 148.537 71.2637C148.88 69.885 149.589 69.3065 150.345 69.7881C150.748 70.0457 150.846 70.508 150.834 72.0928C150.815 74.4636 149.949 76.3079 148.428 77.2139C147.894 77.5315 146.831 78.3505 146.066 79.0342C144.608 80.3379 142.72 81.0926 140.912 81.0947C139.555 81.0962 138.244 81.9162 137.404 83.29C137.032 83.8984 136.621 84.4704 136.49 84.5605C136.358 84.6549 135.107 86.9794 133.71 89.7295C130.612 95.8279 128.689 99.1742 127.737 100.12C126.839 101.013 123.001 102.441 122.235 102.167C121.142 101.775 117.839 98.8684 114.76 95.5889C111.89 92.5319 111.591 92.294 111.167 92.7158C110.766 93.1142 110.692 94.4091 110.608 102.427C110.497 113.134 111.214 123.909 112.312 128.047C112.647 129.31 113.104 131.29 113.327 132.444C113.809 134.933 114.892 145.419 114.892 147.595C114.892 149.81 115.236 150.461 116.764 151.133C118.773 152.016 122.8 154.775 123.986 156.08C125.125 157.334 126.315 158.624 126.156 160.486C126.156 161.695 125.463 161.928 121.708 161.979C118.515 162.024 114.66 161.662 110.127 160.892C107.675 160.475 105.992 159.685 105.816 158.868C105.738 158.501 105.485 157.296 105.255 156.19C105.025 155.085 104.547 152.823 104.193 151.165C103.839 149.507 103.316 146.598 103.029 144.703C102.438 140.786 100.686 132.22 100.029 130.032C99.5005 128.271 98.4525 126.651 97.7559 126.518C96.6379 126.304 95.531 128.126 94.6816 131.58C93.8008 135.163 92.4226 142.165 91.9287 145.564C91.6766 147.302 91.2297 149.693 90.9365 150.878C90.6438 152.062 90.3227 153.612 90.2227 154.323C90.1224 155.034 89.8262 156.505 89.5654 157.592C89.1138 159.472 89.034 159.593 87.9121 160.082C84.4871 161.576 70.8006 162.656 69.4463 161.539C68.3422 160.628 69.4909 157.528 71.6699 155.539C73.2474 154.099 76.5347 151.937 78.3828 151.124C79.8786 150.466 80.1251 149.983 80.1973 147.575C80.3758 141.635 81.6325 132.449 82.9873 127.186C84.4193 121.621 85.1421 93.6317 83.8857 92.3828C83.788 92.299 81.6645 94.2804 79.1611 96.792C76.5572 99.4047 74.1293 101.586 73.5 101.878C72.4123 102.383 72.3719 102.379 70.3232 101.635C69.1819 101.22 67.9655 100.661 67.6201 100.393C66.6913 99.6697 64.2904 95.6043 61.8447 90.6152C59.3408 85.5069 57.1632 82.1365 55.9727 81.5244C55.5123 81.2875 54.6117 81.0938 53.9717 81.0938C52.3371 81.0937 50.5661 80.3342 49.0049 78.9639C48.2702 78.3189 47.2319 77.5314 46.6982 77.2139C45.1768 76.3079 44.3105 74.4636 44.292 72.0928C44.2796 70.5076 44.3782 70.0457 44.7822 69.7881C45.5382 69.3068 46.2464 69.8852 46.5889 71.2637C47.0146 72.977 47.2072 72.9686 47.3877 71.2295C47.4764 70.3772 47.8267 69.1381 48.166 68.4766C48.6819 67.4714 48.906 67.2883 49.5332 67.3633C50.6882 67.5008 50.9558 68.1803 50.5205 69.8691C50.0837 71.5641 50.4342 73.0705 51.4268 73.7617C52.3521 74.4061 52.8162 73.8519 52.6094 72.3506C52.4035 70.8575 52.9332 68.2398 53.5859 67.5225C53.8987 67.179 54.375 67.0244 54.9482 67.0801C55.4425 67.1284 55.8134 67.5545 55.793 68.0508L55.7441 69.2373C55.6835 70.7127 55.7926 71.5645 56.1221 72.1982C56.8262 73.5526 57.522 73.2309 57.7412 71.4492C58.0194 69.1887 59.0216 67.8838 60.4795 67.8838C61.5197 67.884 61.9134 68.6148 61.4941 69.7676C61.2975 70.3089 61.1285 71.2603 61.1201 71.8809C61.104 73.0395 61.5916 73.8037 65.0762 78.0889C65.7231 78.8843 66.7575 80.4353 67.375 81.5352C68.6634 83.8288 70.8868 87.1283 71.1592 87.1514C71.2606 87.16 72.4013 85.632 73.6943 83.7559C77.8712 77.6974 80.5328 74.6762 82.6475 73.5918C83.9489 72.9243 86.5882 72.6662 88.0654 73.0615C88.7462 73.2439 90.1327 73.9821 91.1465 74.7012C93.5745 76.424 94.6252 76.7607 97.5635 76.7607C100.502 76.7607 101.552 76.4241 103.98 74.7012C104.994 73.9821 106.38 73.2439 107.061 73.0615C108.538 72.6662 111.177 72.9243 112.479 73.5918C114.599 74.6793 117.349 77.8103 121.549 83.9199C123.585 86.8814 124.033 87.3833 124.276 86.9727C124.437 86.7021 124.854 86.0765 125.203 85.582C125.553 85.0876 126.452 83.6207 127.202 82.3223C127.952 81.0239 129.784 78.4396 131.271 76.5791L133.977 73.1963L133.845 71.6172C133.772 70.7485 133.623 69.6232 133.514 69.1172C133.335 68.288 134.089 68.0039 134.089 68.0039C135.77 67.5844 136.981 68.825 137.345 71.3389C137.618 73.227 138.289 73.5743 139.005 72.1982C139.334 71.5645 139.442 70.7124 139.382 69.2373L139.331 67.9902C139.312 67.5257 139.655 67.1249 140.117 67.0723ZM93.8086 36.5498C97.0728 35.4985 100.663 35.9546 104.59 37.9209C108.264 39.7608 110.205 42.2762 111.314 46.6328C111.709 48.1826 111.763 49.5235 111.639 54.5303C111.556 57.8465 111.378 60.8402 111.241 61.1836C111.105 61.5262 109.981 62.8842 108.745 64.2012C107.509 65.5185 105.624 67.8878 104.557 69.4658C102.211 72.9331 101.453 73.4045 98.0029 73.543C96.3295 73.6102 95.2841 73.4951 94.2412 73.1289C92.8989 72.6578 92.6551 72.411 90.7754 69.6113C89.6634 67.9552 87.7537 65.5567 86.5303 64.2822C85.3071 63.0075 84.1598 61.5844 83.9805 61.1191C83.8 60.6505 83.5831 57.6492 83.4941 54.3867C83.3154 47.8215 83.5361 46.2984 85.1484 43.0078C86.5535 40.1404 89.5139 37.9331 93.8086 36.5498ZM90.6143 50.8232C88.5676 50.8234 86.9082 52.8978 86.9082 55.4561C86.9083 58.0143 88.5677 60.0878 90.6143 60.0879C92.6609 60.0879 94.3202 58.0144 94.3203 55.4561C94.3203 52.8977 92.661 50.8232 90.6143 50.8232ZM104.511 50.8232C102.464 50.8232 100.805 52.8977 100.805 55.4561C100.805 58.0144 102.464 60.0879 104.511 60.0879C106.557 60.0877 108.216 58.0142 108.216 55.4561C108.216 52.8978 106.557 50.8235 104.511 50.8232Z" fill="black"/>
<path d="M137.176 158.26C137.903 155.086 138.907 152.167 139.952 149.099" stroke="black" stroke-width="2.77941" stroke-linecap="round"/>
<path d="M143.283 158.816L145.504 154.096" stroke="black" stroke-width="2.77941" stroke-linecap="round"/>
<path d="M60.7695 158.521C59.1054 155.858 57.8261 153.078 56.6055 150.193" stroke="black" stroke-width="2.77941" stroke-linecap="round"/>
<path d="M56.3263 159.909C56.0486 159.669 54.0005 157.966 54.1055 157.966" stroke="black" stroke-width="2.77941" stroke-linecap="round"/>
<path d="M44.9432 161.574C44.4028 161.377 43.4204 161.089 43 161.019" stroke="black" stroke-width="2.77941" stroke-linecap="round"/>
<path d="M152.721 160.759L154.386 159.093" stroke="black" stroke-width="2.77941" stroke-linecap="round"/>
</svg>
